<svg width="1600" height="900" viewBox="0 0 1600 900" fill="none" xmlns="http://www.w3.org/2000/svg">
  <defs>
    <linearGradient id="bg" x1="800" y1="0" x2="800" y2="900" gradientUnits="userSpaceOnUse">
      <stop offset="0" stop-color="#18232D"/>
      <stop offset="0.45" stop-color="#10181F"/>
      <stop offset="1" stop-color="#06080B"/>
    </linearGradient>
    <linearGradient id="shaftGlow" x1="800" y1="80" x2="800" y2="860" gradientUnits="userSpaceOnUse">
      <stop offset="0" stop-color="#36515B" stop-opacity="0.0"/>
      <stop offset="0.3" stop-color="#4B7A73" stop-opacity="0.14"/>
      <stop offset="0.7" stop-color="#7AC7A3" stop-opacity="0.18"/>
      <stop offset="1" stop-color="#7AC7A3" stop-opacity="0"/>
    </linearGradient>
    <linearGradient id="warmGlow" x1="0" y1="0" x2="0" y2="1">
      <stop offset="0" stop-color="#F4D183" stop-opacity="1"/>
      <stop offset="1" stop-color="#C9852F" stop-opacity="1"/>
    </linearGradient>
    <linearGradient id="stoneLeft" x1="0" y1="0" x2="1" y2="1">
      <stop offset="0" stop-color="#33414A"/>
      <stop offset="1" stop-color="#1A232A"/>
    </linearGradient>
    <linearGradient id="stoneRight" x1="1" y1="0" x2="0" y2="1">
      <stop offset="0" stop-color="#2B313E"/>
      <stop offset="1" stop-color="#161A23"/>
    </linearGradient>
    <filter id="blur1" x="-20%" y="-20%" width="140%" height="140%">
      <feGaussianBlur stdDeviation="12"/>
    </filter>
    <filter id="blur2" x="-20%" y="-20%" width="140%" height="140%">
      <feGaussianBlur stdDeviation="24"/>
    </filter>
  </defs>

  <rect width="1600" height="900" fill="url(#bg)"/>

  <path d="M0 170L180 80L300 120L420 60L520 110L590 210L520 330L610 420L520 560L610 760L420 900H0V170Z" fill="url(#stoneLeft)"/>
  <path d="M1600 180L1450 100L1290 150L1180 90L1040 180L1080 310L1000 430L1090 560L1010 760L1180 900H1600V180Z" fill="url(#stoneRight)"/>

  <g opacity="0.45">
    <path d="M175 142L245 112L286 134L235 170L175 142Z" fill="#41545E"/>
    <path d="M228 250L322 208L372 244L278 296L228 250Z" fill="#3C4B53"/>
    <path d="M1216 170L1308 126L1362 162L1266 214L1216 170Z" fill="#39424F"/>
    <path d="M1124 278L1210 236L1262 270L1178 326L1124 278Z" fill="#343B47"/>
  </g>

  <rect x="690" y="0" width="220" height="900" fill="url(#shaftGlow)"/>

  <g opacity="0.85">
    <rect x="755" y="0" width="12" height="900" fill="#4A4E52"/>
    <rect x="834" y="0" width="12" height="900" fill="#4A4E52"/>
    <rect x="748" y="0" width="26" height="900" fill="#24282B"/>
    <rect x="827" y="0" width="26" height="900" fill="#24282B"/>
  </g>

  <g opacity="0.9">
    <path d="M770 0L776 0L760 900L752 900L770 0Z" fill="#62676C"/>
    <path d="M851 0L859 0L848 900L840 900L851 0Z" fill="#62676C"/>
  </g>

  <g opacity="0.3">
    <circle cx="798" cy="186" r="82" fill="#79B89B" filter="url(#blur2)"/>
    <circle cx="800" cy="510" r="110" fill="#4F7A74" filter="url(#blur2)"/>
  </g>

  <g>
    <rect x="700" y="330" width="200" height="95" rx="6" fill="#5E4127"/>
    <rect x="712" y="342" width="176" height="70" fill="#7A5737"/>
    <rect x="700" y="330" width="200" height="14" fill="#8D6A42"/>
    <rect x="700" y="411" width="200" height="14" fill="#4B321D"/>
    <rect x="722" y="352" width="18" height="50" fill="#9A7447"/>
    <rect x="760" y="352" width="18" height="50" fill="#9A7447"/>
    <rect x="798" y="352" width="18" height="50" fill="#9A7447"/>
    <rect x="836" y="352" width="18" height="50" fill="#9A7447"/>
    <rect x="874" y="352" width="14" height="50" fill="#9A7447"/>
    <rect x="692" y="324" width="16" height="107" fill="#37261A"/>
    <rect x="892" y="324" width="16" height="107" fill="#37261A"/>
    <circle cx="726" cy="338" r="4" fill="#C69754"/>
    <circle cx="874" cy="338" r="4" fill="#C69754"/>
    <circle cx="726" cy="418" r="4" fill="#2B1B10"/>
    <circle cx="874" cy="418" r="4" fill="#2B1B10"/>
  </g>

  <g filter="url(#blur1)">
    <ellipse cx="800" cy="380" rx="148" ry="42" fill="#D8AA55" opacity="0.22"/>
  </g>

  <g>
    <rect x="665" y="302" width="18" height="56" fill="#32271E"/>
    <rect x="917" y="302" width="18" height="56" fill="#32271E"/>
    <circle cx="674" cy="368" r="18" fill="#D39B43"/>
    <circle cx="926" cy="368" r="18" fill="#D39B43"/>
    <circle cx="674" cy="368" r="32" fill="#D39B43" opacity="0.15" filter="url(#blur1)"/>
    <circle cx="926" cy="368" r="32" fill="#D39B43" opacity="0.15" filter="url(#blur1)"/>
  </g>

  <g opacity="0.95">
    <path d="M170 520H500L520 548H188L170 520Z" fill="#4A3422"/>
    <rect x="194" y="495" width="24" height="53" fill="#2D2016"/>
    <rect x="472" y="495" width="24" height="53" fill="#2D2016"/>
    <path d="M170 520L198 483H489L500 520H170Z" fill="#775033"/>
  </g>

  <g opacity="0.95">
    <path d="M1085 500H1420L1396 532H1062L1085 500Z" fill="#342A31"/>
    <path d="M1085 500L1108 464H1436L1420 500H1085Z" fill="#5C4650"/>
    <rect x="1108" y="472" width="18" height="60" fill="#262029"/>
    <rect x="1384" y="472" width="18" height="60" fill="#262029"/>
  </g>

  <g opacity="0.9">
    <path d="M225 378H375L364 402H216L225 378Z" fill="#5D4128"/>
    <path d="M216 402H364L354 418H208L216 402Z" fill="#3B291B"/>
    <path d="M1226 358H1378L1388 383H1237L1226 358Z" fill="#40313A"/>
    <path d="M1237 383H1388L1397 398H1246L1237 383Z" fill="#281E25"/>
  </g>

  <g opacity="0.7">
    <path d="M310 615H420L437 642H296L310 615Z" fill="#6E4C2E"/>
    <path d="M1180 628H1306L1290 655H1162L1180 628Z" fill="#4D3A43"/>
  </g>

  <g opacity="0.7">
    <path d="M560 438L688 377" stroke="#8A6B43" stroke-width="6"/>
    <path d="M912 380L1068 452" stroke="#796069" stroke-width="6"/>
    <path d="M500 522L702 382" stroke="#4F3825" stroke-width="4"/>
    <path d="M896 382L1082 502" stroke="#493943" stroke-width="4"/>
  </g>

  <g opacity="0.65">
    <circle cx="314" cy="340" r="20" fill="#6BC9A5" opacity="0.8"/>
    <circle cx="314" cy="340" r="42" fill="#6BC9A5" opacity="0.12" filter="url(#blur1)"/>
    <circle cx="1286" cy="322" r="20" fill="#6BC9A5" opacity="0.8"/>
    <circle cx="1286" cy="322" r="42" fill="#6BC9A5" opacity="0.12" filter="url(#blur1)"/>
    <circle cx="1186" cy="588" r="16" fill="#6BC9A5" opacity="0.8"/>
    <circle cx="1186" cy="588" r="36" fill="#6BC9A5" opacity="0.12" filter="url(#blur1)"/>
  </g>

  <g opacity="0.6">
    <path d="M1160 212L1202 160L1272 174L1298 234L1258 286L1189 274L1160 212Z" fill="none" stroke="#6AA88A" stroke-width="3"/>
    <path d="M1178 222L1213 182L1261 192L1277 231L1248 264L1201 255L1178 222Z" fill="none" stroke="#4F7B68" stroke-width="2"/>
  </g>

  <g opacity="0.35">
    <path d="M137 274C190 242 216 252 248 288" stroke="#95A4A7" stroke-width="2"/>
    <path d="M142 290C194 264 222 272 255 310" stroke="#95A4A7" stroke-width="2"/>
    <path d="M1320 220C1366 184 1412 188 1453 244" stroke="#A59AA3" stroke-width="2"/>
    <path d="M1310 242C1362 206 1408 212 1446 266" stroke="#A59AA3" stroke-width="2"/>
  </g>

  <g opacity="0.9">
    <path d="M786 286L800 270L814 286L808 318H792L786 286Z" fill="#D4A450"/>
    <path d="M786 286L800 270L814 286" stroke="#FFE2A1" stroke-width="2"/>
  </g>

  <g opacity="0.9">
    <rect x="790" y="305" width="20" height="42" fill="#2A2C2E"/>
    <rect x="796" y="292" width="8" height="14" fill="#C6B08B"/>
    <path d="M798 347L789 382" stroke="#2A2C2E" stroke-width="6" stroke-linecap="round"/>
    <path d="M802 347L814 380" stroke="#2A2C2E" stroke-width="6" stroke-linecap="round"/>
    <path d="M792 320L778 345" stroke="#2A2C2E" stroke-width="6" stroke-linecap="round"/>
    <path d="M808 320L823 339" stroke="#2A2C2E" stroke-width="6" stroke-linecap="round"/>
    <path d="M824 330L850 322" stroke="#9E7B4A" stroke-width="5" stroke-linecap="round"/>
  </g>

  <g opacity="0.7">
    <rect x="1282" y="454" width="18" height="35" fill="#25282C"/>
    <rect x="1288" y="444" width="7" height="10" fill="#8A8D91"/>
    <path d="M1291 489L1284 517" stroke="#25282C" stroke-width="5" stroke-linecap="round"/>
    <path d="M1294 489L1301 517" stroke="#25282C" stroke-width="5" stroke-linecap="round"/>
  </g>

  <g opacity="0.85">
    <text x="72" y="84" fill="#E9D8B0" font-family="Georgia, serif" font-size="34">Map Concept</text>
    <text x="72" y="126" fill="#F1B95C" font-family="Georgia, serif" font-size="52">The Endless Shaft</text>
    <text x="72" y="164" fill="#9CB3AF" font-family="Georgia, serif" font-size="24">Warm extraction elevator versus cold arcane mine-ruin</text>
  </g>

  <g opacity="0.45">
    <text x="84" y="814" fill="#8FA09E" font-family="Georgia, serif" font-size="22">Left: abandoned mine platforms and scavenging routes</text>
    <text x="963" y="814" fill="#8FA09E" font-family="Georgia, serif" font-size="22">Right: ancient ruin platforms, seals and elite danger</text>
  </g>
</svg>
