<svg width="320" height="88" viewBox="0 0 320 88" xmlns="http://www.w3.org/2000/svg">
  <defs>
    <linearGradient id="fill" x1="0" y1="0" x2="0" y2="1">
      <stop offset="0" stop-color="#8A5B35"/>
      <stop offset="0.52" stop-color="#6B4328"/>
      <stop offset="1" stop-color="#4D2F1E"/>
    </linearGradient>
    <linearGradient id="accent" x1="0" y1="0" x2="1" y2="0">
      <stop offset="0" stop-color="#F0C67A" stop-opacity="0"/>
      <stop offset="0.5" stop-color="#F0C67A" stop-opacity="0.9"/>
      <stop offset="1" stop-color="#F0C67A" stop-opacity="0"/>
    </linearGradient>
  </defs>

  <g shape-rendering="crispEdges">
    <rect x="4" y="4" width="312" height="80" fill="#120E0C"/>
    <rect x="10" y="10" width="300" height="68" fill="url(#fill)"/>
    <rect x="10" y="10" width="300" height="10" fill="#A97744"/>
    <rect x="10" y="20" width="300" height="6" fill="#6D472B"/>
    <rect x="10" y="68" width="300" height="10" fill="#3A2418"/>
    <rect x="26" y="26" width="12" height="12" fill="#D6A95D"/>
    <rect x="282" y="26" width="12" height="12" fill="#D6A95D"/>
    <rect x="26" y="50" width="12" height="12" fill="#40271A"/>
    <rect x="282" y="50" width="12" height="12" fill="#40271A"/>

    <rect x="4" y="4" width="312" height="4" fill="#D7B072"/>
    <rect x="4" y="80" width="312" height="4" fill="#0B0807"/>
    <rect x="4" y="8" width="4" height="72" fill="#D7B072"/>
    <rect x="312" y="8" width="4" height="72" fill="#0B0807"/>
  </g>
</svg>
