<svg width="960" height="640" viewBox="0 0 960 640" xmlns="http://www.w3.org/2000/svg">
  <defs>
    <linearGradient id="panelFill" x1="0" y1="0" x2="0" y2="1">
      <stop offset="0" stop-color="#252C38"/>
      <stop offset="1" stop-color="#171C26"/>
    </linearGradient>
    <linearGradient id="headerGlow" x1="0" y1="0" x2="1" y2="0">
      <stop offset="0" stop-color="#DDA85C" stop-opacity="0"/>
      <stop offset="0.5" stop-color="#DDA85C" stop-opacity="0.45"/>
      <stop offset="1" stop-color="#DDA85C" stop-opacity="0"/>
    </linearGradient>
  </defs>

  <rect width="960" height="640" fill="#0B0E13" opacity="0"/>
  <g shape-rendering="crispEdges">
    <rect x="12" y="12" width="936" height="616" fill="#0D1118"/>
    <rect x="24" y="24" width="912" height="592" fill="url(#panelFill)"/>
    <rect x="24" y="24" width="912" height="16" fill="#5E697B"/>
    <rect x="24" y="40" width="912" height="8" fill="#394250"/>

    <rect x="24" y="24" width="16" height="592" fill="#2C3442"/>
    <rect x="920" y="24" width="16" height="592" fill="#2B3341"/>
    <rect x="40" y="600" width="880" height="16" fill="#131923"/>

    <rect x="74" y="74" width="812" height="78" fill="#202733"/>
    <rect x="88" y="88" width="784" height="6" fill="url(#headerGlow)"/>

    <rect x="74" y="184" width="812" height="372" fill="#1B222E"/>
    <rect x="90" y="200" width="250" height="148" fill="#242D3A"/>
    <rect x="356" y="200" width="250" height="148" fill="#242D3A"/>
    <rect x="622" y="200" width="248" height="148" fill="#242D3A"/>
    <rect x="90" y="364" width="780" height="58" fill="#202733"/>
    <rect x="90" y="438" width="780" height="102" fill="#181F2A"/>

    <rect x="106" y="282" width="138" height="48" fill="#18202A"/>
    <rect x="372" y="282" width="138" height="48" fill="#18202A"/>
    <rect x="638" y="282" width="138" height="48" fill="#18202A"/>

    <rect x="12" y="12" width="936" height="4" fill="#778294"/>
    <rect x="12" y="624" width="936" height="4" fill="#0A0D13"/>
    <rect x="12" y="16" width="4" height="608" fill="#778294"/>
    <rect x="944" y="16" width="4" height="608" fill="#11161F"/>
  </g>

  <g shape-rendering="crispEdges">
    <rect x="40" y="40" width="22" height="22" fill="#7F8B9D"/>
    <rect x="898" y="40" width="22" height="22" fill="#7F8B9D"/>
    <rect x="40" y="578" width="22" height="22" fill="#202834"/>
    <rect x="898" y="578" width="22" height="22" fill="#202834"/>
    <rect x="50" y="50" width="6" height="6" fill="#DDA85C"/>
    <rect x="904" y="50" width="6" height="6" fill="#DDA85C"/>
  </g>
</svg>
