<svg width="420" height="720" viewBox="0 0 420 720" xmlns="http://www.w3.org/2000/svg">
  <defs>
    <linearGradient id="panelFill" x1="0" y1="0" x2="0" y2="1">
      <stop offset="0" stop-color="#232B37"/>
      <stop offset="1" stop-color="#161B25"/>
    </linearGradient>
  </defs>

  <g shape-rendering="crispEdges">
    <rect x="10" y="10" width="400" height="700" fill="#0D1118"/>
    <rect x="22" y="22" width="376" height="676" fill="url(#panelFill)"/>
    <rect x="22" y="22" width="376" height="16" fill="#606B7D"/>
    <rect x="22" y="38" width="376" height="8" fill="#39424F"/>
    <rect x="22" y="22" width="14" height="676" fill="#2B3341"/>
    <rect x="384" y="22" width="14" height="676" fill="#2A3240"/>

    <rect x="56" y="70" width="308" height="64" fill="#1F2632"/>
    <rect x="56" y="160" width="308" height="118" fill="#1B222E"/>
    <rect x="72" y="222" width="276" height="40" fill="#161D27"/>

    <rect x="56" y="300" width="308" height="118" fill="#1B222E"/>
    <rect x="72" y="362" width="276" height="40" fill="#161D27"/>

    <rect x="56" y="440" width="308" height="208" fill="#1A212C"/>
    <rect x="72" y="516" width="276" height="12" fill="#2B3441"/>

    <rect x="10" y="10" width="400" height="4" fill="#7A8597"/>
    <rect x="10" y="706" width="400" height="4" fill="#090D13"/>
    <rect x="10" y="14" width="4" height="692" fill="#7A8597"/>
    <rect x="406" y="14" width="4" height="692" fill="#11161F"/>
  </g>
</svg>
