<svg width="960" height="540" viewBox="0 0 960 540" xmlns="http://www.w3.org/2000/svg">
  <defs>
    <linearGradient id="bg" x1="0" y1="0" x2="0" y2="1">
      <stop offset="0" stop-color="#111824"/>
      <stop offset="0.45" stop-color="#0C1119"/>
      <stop offset="1" stop-color="#080C12"/>
    </linearGradient>
    <filter id="glow" x="-20%" y="-20%" width="140%" height="140%">
      <feGaussianBlur stdDeviation="16"/>
    </filter>
  </defs>

  <rect width="960" height="540" fill="url(#bg)"/>

  <g opacity="0.18" shape-rendering="crispEdges">
    <rect x="80" y="90" width="48" height="220" fill="#1B2330"/>
    <rect x="160" y="54" width="64" height="256" fill="#1A212E"/>
    <rect x="736" y="74" width="56" height="236" fill="#1B2330"/>
    <rect x="832" y="48" width="48" height="262" fill="#1A212E"/>
    <rect x="392" y="24" width="176" height="286" fill="#17202B"/>
  </g>

  <g shape-rendering="crispEdges">
    <rect x="0" y="412" width="960" height="128" fill="#242B36"/>
    <rect x="0" y="420" width="960" height="16" fill="#5D687B"/>
    <rect x="0" y="436" width="960" height="8" fill="#424B5C"/>
    <rect x="0" y="444" width="960" height="96" fill="#303744"/>

    <rect x="96" y="336" width="192" height="16" fill="#667286"/>
    <rect x="96" y="352" width="192" height="8" fill="#40495A"/>
    <rect x="104" y="328" width="176" height="8" fill="#9AA6B9"/>
    <rect x="104" y="320" width="16" height="8" fill="#6FD2B8"/>
    <rect x="128" y="320" width="16" height="8" fill="#6FD2B8"/>
    <rect x="152" y="320" width="16" height="8" fill="#6FD2B8"/>
    <rect x="176" y="320" width="16" height="8" fill="#6FD2B8"/>
    <rect x="200" y="320" width="16" height="8" fill="#6FD2B8"/>
    <rect x="224" y="320" width="16" height="8" fill="#6FD2B8"/>
    <rect x="248" y="320" width="16" height="8" fill="#6FD2B8"/>

    <rect x="544" y="276" width="160" height="16" fill="#6A7589"/>
    <rect x="544" y="292" width="160" height="8" fill="#3E4757"/>
    <rect x="552" y="268" width="144" height="8" fill="#9AA6BA"/>
    <rect x="576" y="260" width="16" height="8" fill="#6FD2B8"/>
    <rect x="656" y="260" width="16" height="8" fill="#6FD2B8"/>

    <rect x="736" y="188" width="128" height="16" fill="#647084"/>
    <rect x="736" y="204" width="128" height="8" fill="#3C4555"/>
    <rect x="744" y="180" width="112" height="8" fill="#8F9BAF"/>
    <rect x="744" y="172" width="24" height="8" fill="#6FD2B8"/>
    <rect x="776" y="172" width="16" height="8" fill="#6FD2B8"/>
    <rect x="816" y="172" width="24" height="8" fill="#6FD2B8"/>
    <rect x="848" y="172" width="8" height="8" fill="#6FD2B8"/>

    <rect x="344" y="364" width="32" height="48" fill="#1D232C"/>
    <rect x="584" y="300" width="32" height="112" fill="#1D232C"/>
    <rect x="792" y="212" width="32" height="200" fill="#1D232C"/>
  </g>

  <g opacity="0.22">
    <circle cx="176" cy="296" r="52" fill="#73D8BE" filter="url(#glow)"/>
    <circle cx="624" cy="244" r="44" fill="#73D8BE" filter="url(#glow)"/>
    <circle cx="808" cy="154" r="38" fill="#73D8BE" filter="url(#glow)"/>
  </g>

  <g shape-rendering="crispEdges">
    <rect x="420" y="348" width="28" height="64" fill="#20252E"/>
    <rect x="428" y="332" width="12" height="16" fill="#D7CCB6"/>
    <rect x="448" y="360" width="28" height="8" fill="#8EA0B4"/>
    <rect x="408" y="368" width="12" height="28" fill="#20252E"/>
    <rect x="436" y="412" width="12" height="28" fill="#20252E"/>
    <rect x="420" y="412" width="12" height="28" fill="#20252E"/>
  </g>
</svg>
