<svg width="960" height="540" viewBox="0 0 960 540" xmlns="http://www.w3.org/2000/svg">
  <defs>
    <linearGradient id="bg" x1="0" y1="0" x2="0" y2="1">
      <stop offset="0" stop-color="#101722"/>
      <stop offset="0.4" stop-color="#0B1018"/>
      <stop offset="1" stop-color="#060A10"/>
    </linearGradient>
    <filter id="glow" x="-20%" y="-20%" width="140%" height="140%">
      <feGaussianBlur stdDeviation="16"/>
    </filter>
  </defs>

  <rect width="960" height="540" fill="url(#bg)"/>

  <g opacity="0.14" shape-rendering="crispEdges">
    <rect x="88" y="40" width="56" height="264" fill="#151C27"/>
    <rect x="184" y="20" width="48" height="284" fill="#141A24"/>
    <rect x="732" y="54" width="52" height="250" fill="#151C27"/>
    <rect x="820" y="26" width="44" height="278" fill="#141A24"/>
  </g>

  <g shape-rendering="crispEdges">
    <rect x="0" y="348" width="960" height="192" fill="#232933"/>
    <rect x="0" y="348" width="960" height="3" fill="#929FB4"/>
    <rect x="0" y="351" width="960" height="3" fill="#738095"/>
    <rect x="0" y="354" width="960" height="4" fill="#525C6C"/>

    <rect x="0" y="358" width="180" height="22" fill="#46505F"/>
    <rect x="180" y="358" width="188" height="22" fill="#39414F"/>
    <rect x="368" y="358" width="176" height="22" fill="#4B5667"/>
    <rect x="544" y="358" width="192" height="22" fill="#38404E"/>
    <rect x="736" y="358" width="224" height="22" fill="#46505F"/>

    <rect x="0" y="380" width="132" height="22" fill="#313846"/>
    <rect x="132" y="380" width="212" height="22" fill="#46515F"/>
    <rect x="344" y="380" width="180" height="22" fill="#39414E"/>
    <rect x="524" y="380" width="168" height="22" fill="#4A5566"/>
    <rect x="692" y="380" width="268" height="22" fill="#333A47"/>

    <rect x="0" y="402" width="206" height="22" fill="#4A5566"/>
    <rect x="206" y="402" width="150" height="22" fill="#353D4B"/>
    <rect x="356" y="402" width="214" height="22" fill="#46515F"/>
    <rect x="570" y="402" width="172" height="22" fill="#38404E"/>
    <rect x="742" y="402" width="218" height="22" fill="#4A5566"/>

    <rect x="0" y="424" width="146" height="24" fill="#343B49"/>
    <rect x="146" y="424" width="198" height="24" fill="#4B5667"/>
    <rect x="344" y="424" width="164" height="24" fill="#37404D"/>
    <rect x="508" y="424" width="198" height="24" fill="#45505F"/>
    <rect x="706" y="424" width="254" height="24" fill="#343B49"/>

    <rect x="0" y="448" width="188" height="92" fill="#2F3642"/>
    <rect x="188" y="448" width="164" height="92" fill="#404959"/>
    <rect x="352" y="448" width="204" height="92" fill="#303744"/>
    <rect x="556" y="448" width="176" height="92" fill="#46505F"/>
    <rect x="732" y="448" width="228" height="92" fill="#38404E"/>

    <rect x="178" y="358" width="2" height="22" fill="#222832"/>
    <rect x="366" y="358" width="2" height="22" fill="#222832"/>
    <rect x="542" y="358" width="2" height="22" fill="#222832"/>
    <rect x="734" y="358" width="2" height="22" fill="#222832"/>

    <rect x="130" y="380" width="2" height="22" fill="#222832"/>
    <rect x="342" y="380" width="2" height="22" fill="#222832"/>
    <rect x="522" y="380" width="2" height="22" fill="#222832"/>
    <rect x="690" y="380" width="2" height="22" fill="#222832"/>

    <rect x="204" y="402" width="2" height="22" fill="#222832"/>
    <rect x="354" y="402" width="2" height="22" fill="#222832"/>
    <rect x="568" y="402" width="2" height="22" fill="#222832"/>
    <rect x="740" y="402" width="2" height="22" fill="#222832"/>

    <rect x="144" y="424" width="2" height="24" fill="#222832"/>
    <rect x="342" y="424" width="2" height="24" fill="#222832"/>
    <rect x="506" y="424" width="2" height="24" fill="#222832"/>
    <rect x="704" y="424" width="2" height="24" fill="#222832"/>

    <rect x="2" y="379" width="958" height="1" fill="#20252E"/>
    <rect x="2" y="401" width="958" height="1" fill="#20252E"/>
    <rect x="2" y="423" width="958" height="1" fill="#20252E"/>
    <rect x="2" y="447" width="958" height="1" fill="#20252E"/>

    <rect x="18" y="362" width="20" height="2" fill="#AAB7CA"/>
    <rect x="226" y="362" width="22" height="2" fill="#8A97AA"/>
    <rect x="404" y="362" width="26" height="2" fill="#A4B1C4"/>
    <rect x="590" y="362" width="20" height="2" fill="#8E9CAF"/>
    <rect x="808" y="362" width="24" height="2" fill="#AAB7CA"/>

    <rect x="38" y="386" width="20" height="2" fill="#9EABBE"/>
    <rect x="176" y="386" width="18" height="2" fill="#A5B2C6"/>
    <rect x="402" y="386" width="18" height="2" fill="#7E8A9D"/>
    <rect x="566" y="386" width="20" height="2" fill="#98A5B8"/>
    <rect x="836" y="386" width="18" height="2" fill="#A6B4C8"/>

    <rect x="16" y="408" width="20" height="2" fill="#97A4B7"/>
    <rect x="242" y="408" width="16" height="2" fill="#8D9AAF"/>
    <rect x="424" y="408" width="22" height="2" fill="#A8B5C8"/>
    <rect x="604" y="408" width="16" height="2" fill="#8996AA"/>
    <rect x="808" y="408" width="18" height="2" fill="#A4B2C5"/>

    <rect x="28" y="430" width="18" height="2" fill="#8D9AAF"/>
    <rect x="202" y="430" width="24" height="2" fill="#98A6B9"/>
    <rect x="396" y="430" width="18" height="2" fill="#A9B6CA"/>
    <rect x="560" y="430" width="20" height="2" fill="#8B98AC"/>
    <rect x="774" y="430" width="18" height="2" fill="#A6B3C7"/>

    <rect x="54" y="370" width="4" height="6" fill="#2B313C"/>
    <rect x="286" y="370" width="8" height="2" fill="#2B313C"/>
    <rect x="498" y="370" width="4" height="6" fill="#2B313C"/>
    <rect x="826" y="370" width="4" height="6" fill="#2B313C"/>

    <rect x="92" y="392" width="8" height="2" fill="#2B313C"/>
    <rect x="318" y="392" width="4" height="6" fill="#2B313C"/>
    <rect x="612" y="392" width="8" height="2" fill="#2B313C"/>
    <rect x="874" y="392" width="4" height="6" fill="#2B313C"/>

    <rect x="42" y="414" width="4" height="6" fill="#2B313C"/>
    <rect x="266" y="414" width="8" height="2" fill="#2B313C"/>
    <rect x="452" y="414" width="4" height="6" fill="#2B313C"/>
    <rect x="788" y="414" width="8" height="2" fill="#2B313C"/>

    <rect x="160" y="436" width="8" height="2" fill="#2B313C"/>
    <rect x="390" y="436" width="4" height="6" fill="#2B313C"/>
    <rect x="620" y="436" width="8" height="2" fill="#2B313C"/>
    <rect x="910" y="436" width="4" height="6" fill="#2B313C"/>

    <rect x="130" y="430" width="6" height="6" fill="#6FD2B8"/>
    <rect x="516" y="438" width="6" height="6" fill="#6FD2B8"/>
    <rect x="862" y="416" width="6" height="6" fill="#6FD2B8"/>
  </g>

  <g opacity="0.18">
    <circle cx="138" cy="420" r="58" fill="#73D8BE" filter="url(#glow)"/>
    <circle cx="520" cy="430" r="44" fill="#73D8BE" filter="url(#glow)"/>
    <circle cx="862" cy="408" r="40" fill="#73D8BE" filter="url(#glow)"/>
  </g>
</svg>
