<svg width="512" height="384" viewBox="0 0 512 384" xmlns="http://www.w3.org/2000/svg">
  <defs>
    <symbol id="g1" viewBox="0 0 64 64">
      <g shape-rendering="crispEdges">
        <rect width="64" height="64" fill="#252C36"/>
        <rect y="0" width="64" height="4" fill="#8390A4"/>
        <rect y="4" width="64" height="4" fill="#697487"/>
        <rect y="8" width="64" height="4" fill="#4A5362"/>
        <rect x="0" y="12" width="18" height="16" fill="#353D4B"/>
        <rect x="18" y="12" width="14" height="16" fill="#404958"/>
        <rect x="32" y="12" width="20" height="16" fill="#313846"/>
        <rect x="52" y="12" width="12" height="16" fill="#3A4251"/>
        <rect x="0" y="28" width="12" height="16" fill="#414A59"/>
        <rect x="12" y="28" width="24" height="16" fill="#2E3542"/>
        <rect x="36" y="28" width="16" height="16" fill="#38404F"/>
        <rect x="52" y="28" width="12" height="16" fill="#2C333F"/>
        <rect x="0" y="44" width="16" height="20" fill="#303744"/>
        <rect x="16" y="44" width="20" height="20" fill="#40495A"/>
        <rect x="36" y="44" width="28" height="20" fill="#2C333F"/>
        <rect x="6" y="12" width="2" height="16" fill="#232933"/>
        <rect x="24" y="12" width="2" height="16" fill="#232933"/>
        <rect x="42" y="12" width="2" height="16" fill="#232933"/>
        <rect x="8" y="28" width="2" height="16" fill="#232933"/>
        <rect x="24" y="28" width="2" height="16" fill="#232933"/>
        <rect x="44" y="28" width="2" height="16" fill="#232933"/>
        <rect x="10" y="16" width="4" height="2" fill="#AAB7CA"/>
        <rect x="34" y="16" width="6" height="2" fill="#8A97AA"/>
        <rect x="18" y="34" width="6" height="2" fill="#20252E"/>
        <rect x="38" y="38" width="4" height="2" fill="#20252E"/>
        <rect x="14" y="50" width="8" height="2" fill="#8B97AA"/>
        <rect x="50" y="54" width="4" height="4" fill="#6FD2B8"/>
      </g>
    </symbol>

    <symbol id="g2" viewBox="0 0 64 64">
      <g shape-rendering="crispEdges">
        <rect width="64" height="64" fill="#262D37"/>
        <rect y="0" width="64" height="4" fill="#8895A9"/>
        <rect y="4" width="64" height="4" fill="#6D788B"/>
        <rect y="8" width="64" height="4" fill="#4B5362"/>
        <rect x="0" y="12" width="22" height="18" fill="#333A48"/>
        <rect x="22" y="12" width="18" height="18" fill="#424B5A"/>
        <rect x="40" y="12" width="24" height="18" fill="#2F3644"/>
        <rect x="0" y="30" width="16" height="14" fill="#404959"/>
        <rect x="16" y="30" width="20" height="14" fill="#313846"/>
        <rect x="36" y="30" width="12" height="14" fill="#3B4352"/>
        <rect x="48" y="30" width="16" height="14" fill="#2D3441"/>
        <rect x="0" y="44" width="24" height="20" fill="#313846"/>
        <rect x="24" y="44" width="16" height="20" fill="#40495A"/>
        <rect x="40" y="44" width="24" height="20" fill="#2C333F"/>
        <rect x="14" y="12" width="2" height="18" fill="#232933"/>
        <rect x="30" y="12" width="2" height="18" fill="#232933"/>
        <rect x="52" y="12" width="2" height="18" fill="#232933"/>
        <rect x="8" y="18" width="8" height="2" fill="#AEBBCE"/>
        <rect x="42" y="20" width="8" height="2" fill="#7E8C9F"/>
        <rect x="10" y="36" width="4" height="4" fill="#6FD2B8"/>
        <rect x="44" y="48" width="2" height="12" fill="#20252E"/>
      </g>
    </symbol>

    <symbol id="g3" viewBox="0 0 64 64">
      <g shape-rendering="crispEdges">
        <rect width="64" height="64" fill="#242B35"/>
        <rect y="0" width="64" height="4" fill="#8290A3"/>
        <rect y="4" width="64" height="4" fill="#687486"/>
        <rect y="8" width="64" height="4" fill="#495160"/>
        <rect x="0" y="12" width="16" height="16" fill="#303744"/>
        <rect x="16" y="12" width="16" height="16" fill="#3C4555"/>
        <rect x="32" y="12" width="16" height="16" fill="#2E3542"/>
        <rect x="48" y="12" width="16" height="16" fill="#394150"/>
        <rect x="0" y="28" width="20" height="18" fill="#404A5A"/>
        <rect x="20" y="28" width="12" height="18" fill="#2D3441"/>
        <rect x="32" y="28" width="20" height="18" fill="#38404F"/>
        <rect x="52" y="28" width="12" height="18" fill="#2C333F"/>
        <rect x="0" y="46" width="14" height="18" fill="#313846"/>
        <rect x="14" y="46" width="24" height="18" fill="#40495A"/>
        <rect x="38" y="46" width="26" height="18" fill="#2E3542"/>
        <rect x="6" y="12" width="2" height="16" fill="#232933"/>
        <rect x="24" y="12" width="2" height="16" fill="#232933"/>
        <rect x="42" y="12" width="2" height="16" fill="#232933"/>
        <rect x="8" y="16" width="6" height="2" fill="#97A5B8"/>
        <rect x="18" y="34" width="8" height="2" fill="#20252E"/>
        <rect x="8" y="54" width="6" height="2" fill="#6FD2B8"/>
        <rect x="28" y="50" width="2" height="8" fill="#20252E"/>
      </g>
    </symbol>

    <symbol id="g4" viewBox="0 0 64 64">
      <g shape-rendering="crispEdges">
        <rect width="64" height="64" fill="#252C36"/>
        <rect y="0" width="64" height="4" fill="#8895A9"/>
        <rect y="4" width="64" height="4" fill="#6C788B"/>
        <rect y="8" width="64" height="4" fill="#4A5362"/>
        <rect x="0" y="12" width="16" height="18" fill="#343B49"/>
        <rect x="16" y="12" width="18" height="18" fill="#404958"/>
        <rect x="34" y="12" width="14" height="18" fill="#313846"/>
        <rect x="48" y="12" width="16" height="18" fill="#39414F"/>
        <rect x="0" y="30" width="24" height="14" fill="#3C4555"/>
        <rect x="24" y="30" width="16" height="14" fill="#2E3542"/>
        <rect x="40" y="30" width="24" height="14" fill="#40495A"/>
        <rect x="0" y="44" width="12" height="20" fill="#2C333F"/>
        <rect x="12" y="44" width="20" height="20" fill="#38404F"/>
        <rect x="32" y="44" width="16" height="20" fill="#313846"/>
        <rect x="48" y="44" width="16" height="20" fill="#414A5B"/>
        <rect x="12" y="12" width="2" height="18" fill="#232933"/>
        <rect x="24" y="30" width="2" height="14" fill="#232933"/>
        <rect x="8" y="18" width="4" height="2" fill="#AEBBCE"/>
        <rect x="36" y="54" width="8" height="2" fill="#6FD2B8"/>
      </g>
    </symbol>

    <symbol id="g5" viewBox="0 0 64 64">
      <g shape-rendering="crispEdges">
        <rect width="64" height="64" fill="#232A34"/>
        <rect y="0" width="64" height="4" fill="#818EA2"/>
        <rect y="4" width="64" height="4" fill="#677385"/>
        <rect y="8" width="64" height="4" fill="#48515F"/>
        <rect x="0" y="12" width="20" height="16" fill="#333A47"/>
        <rect x="20" y="12" width="12" height="16" fill="#404959"/>
        <rect x="32" y="12" width="20" height="16" fill="#2E3542"/>
        <rect x="52" y="12" width="12" height="16" fill="#38404E"/>
        <rect x="0" y="28" width="16" height="18" fill="#3C4554"/>
        <rect x="16" y="28" width="24" height="18" fill="#2F3644"/>
        <rect x="40" y="28" width="8" height="18" fill="#3A4251"/>
        <rect x="48" y="28" width="16" height="18" fill="#303744"/>
        <rect x="0" y="46" width="24" height="18" fill="#2D3441"/>
        <rect x="24" y="46" width="16" height="18" fill="#40495A"/>
        <rect x="40" y="46" width="24" height="18" fill="#313846"/>
        <rect x="10" y="12" width="2" height="16" fill="#232933"/>
        <rect x="28" y="12" width="2" height="16" fill="#232933"/>
        <rect x="8" y="20" width="8" height="2" fill="#98A6B9"/>
        <rect x="48" y="54" width="4" height="8" fill="#20252E"/>
      </g>
    </symbol>

    <symbol id="g6" viewBox="0 0 64 64">
      <g shape-rendering="crispEdges">
        <rect width="64" height="64" fill="#262D37"/>
        <rect y="0" width="64" height="4" fill="#8693A8"/>
        <rect y="4" width="64" height="4" fill="#6B778B"/>
        <rect y="8" width="64" height="4" fill="#4A5362"/>
        <rect x="0" y="12" width="12" height="18" fill="#313846"/>
        <rect x="12" y="12" width="24" height="18" fill="#3D4656"/>
        <rect x="36" y="12" width="16" height="18" fill="#2F3643"/>
        <rect x="52" y="12" width="12" height="18" fill="#38404F"/>
        <rect x="0" y="30" width="20" height="16" fill="#404959"/>
        <rect x="20" y="30" width="12" height="16" fill="#303744"/>
        <rect x="32" y="30" width="20" height="16" fill="#3A4251"/>
        <rect x="52" y="30" width="12" height="16" fill="#2D3441"/>
        <rect x="0" y="46" width="12" height="18" fill="#313846"/>
        <rect x="12" y="46" width="20" height="18" fill="#404A5A"/>
        <rect x="32" y="46" width="16" height="18" fill="#2F3643"/>
        <rect x="48" y="46" width="16" height="18" fill="#394150"/>
        <rect x="14" y="18" width="8" height="2" fill="#A8B5C8"/>
        <rect x="8" y="20" width="4" height="4" fill="#6FD2B8"/>
        <rect x="12" y="24" width="4" height="4" fill="#6FD2B8"/>
        <rect x="44" y="50" width="4" height="10" fill="#20252E"/>
      </g>
    </symbol>

    <symbol id="g7" viewBox="0 0 64 64">
      <g shape-rendering="crispEdges">
        <rect width="64" height="64" fill="#242B35"/>
        <rect y="0" width="64" height="4" fill="#8290A4"/>
        <rect y="4" width="64" height="4" fill="#687486"/>
        <rect y="8" width="64" height="4" fill="#495160"/>
        <rect x="0" y="12" width="16" height="16" fill="#303744"/>
        <rect x="16" y="12" width="16" height="16" fill="#3C4555"/>
        <rect x="32" y="12" width="16" height="16" fill="#2E3542"/>
        <rect x="48" y="12" width="16" height="16" fill="#39414F"/>
        <rect x="0" y="28" width="12" height="18" fill="#404959"/>
        <rect x="12" y="28" width="20" height="18" fill="#303744"/>
        <rect x="32" y="28" width="12" height="18" fill="#38404F"/>
        <rect x="44" y="28" width="20" height="18" fill="#2D3441"/>
        <rect x="0" y="46" width="20" height="18" fill="#313846"/>
        <rect x="20" y="46" width="12" height="18" fill="#40495A"/>
        <rect x="32" y="46" width="20" height="18" fill="#2F3644"/>
        <rect x="52" y="46" width="12" height="18" fill="#3A4251"/>
        <rect x="8" y="14" width="4" height="2" fill="#A1AFC3"/>
        <rect x="22" y="32" width="8" height="2" fill="#20252E"/>
        <rect x="10" y="54" width="8" height="2" fill="#6FD2B8"/>
      </g>
    </symbol>

    <symbol id="g8" viewBox="0 0 64 64">
      <g shape-rendering="crispEdges">
        <rect width="64" height="64" fill="#252C36"/>
        <rect y="0" width="64" height="4" fill="#8794A8"/>
        <rect y="4" width="64" height="4" fill="#6C778B"/>
        <rect y="8" width="64" height="4" fill="#4A5362"/>
        <rect x="0" y="12" width="24" height="16" fill="#313846"/>
        <rect x="24" y="12" width="16" height="16" fill="#3D4656"/>
        <rect x="40" y="12" width="24" height="16" fill="#2F3644"/>
        <rect x="0" y="28" width="16" height="18" fill="#404959"/>
        <rect x="16" y="28" width="8" height="18" fill="#303744"/>
        <rect x="24" y="28" width="24" height="18" fill="#394150"/>
        <rect x="48" y="28" width="16" height="18" fill="#2D3441"/>
        <rect x="0" y="46" width="16" height="18" fill="#313846"/>
        <rect x="16" y="46" width="24" height="18" fill="#40495A"/>
        <rect x="40" y="46" width="12" height="18" fill="#2F3644"/>
        <rect x="52" y="46" width="12" height="18" fill="#394150"/>
        <rect x="8" y="16" width="8" height="2" fill="#AAB7CA"/>
        <rect x="52" y="16" width="2" height="12" fill="#20252E"/>
        <rect x="8" y="22" width="8" height="4" fill="#6FD2B8"/>
      </g>
    </symbol>

    <symbol id="p1" viewBox="0 0 64 64">
      <g shape-rendering="crispEdges">
        <rect x="0" y="26" width="64" height="6" fill="#AAB6CA"/>
        <rect x="0" y="32" width="64" height="8" fill="#667286"/>
        <rect x="0" y="40" width="64" height="4" fill="#3E4757"/>
        <rect x="4" y="22" width="8" height="4" fill="#6FD2B8"/>
        <rect x="16" y="22" width="8" height="4" fill="#6FD2B8"/>
        <rect x="28" y="22" width="8" height="4" fill="#6FD2B8"/>
        <rect x="40" y="22" width="8" height="4" fill="#6FD2B8"/>
        <rect x="52" y="22" width="8" height="4" fill="#6FD2B8"/>
        <rect x="10" y="44" width="8" height="2" fill="#1E232C"/>
        <rect x="30" y="44" width="8" height="2" fill="#1E232C"/>
        <rect x="48" y="44" width="8" height="2" fill="#1E232C"/>
      </g>
    </symbol>

    <symbol id="p2" viewBox="0 0 64 64">
      <g shape-rendering="crispEdges">
        <rect x="0" y="26" width="64" height="6" fill="#A7B3C7"/>
        <rect x="0" y="32" width="64" height="8" fill="#647084"/>
        <rect x="0" y="40" width="64" height="4" fill="#3C4555"/>
        <rect x="4" y="22" width="12" height="4" fill="#6FD2B8"/>
        <rect x="20" y="22" width="8" height="4" fill="#6FD2B8"/>
        <rect x="36" y="22" width="12" height="4" fill="#6FD2B8"/>
        <rect x="52" y="22" width="8" height="4" fill="#6FD2B8"/>
        <rect x="12" y="34" width="8" height="2" fill="#8E9AAE"/>
        <rect x="42" y="34" width="8" height="2" fill="#8E9AAE"/>
        <rect x="14" y="44" width="6" height="2" fill="#1E232C"/>
        <rect x="42" y="44" width="6" height="2" fill="#1E232C"/>
      </g>
    </symbol>

    <symbol id="p3" viewBox="0 0 64 64">
      <g shape-rendering="crispEdges">
        <rect x="0" y="26" width="64" height="6" fill="#AEBACE"/>
        <rect x="0" y="32" width="64" height="8" fill="#697589"/>
        <rect x="0" y="40" width="64" height="4" fill="#40495A"/>
        <rect x="12" y="22" width="8" height="4" fill="#6FD2B8"/>
        <rect x="44" y="22" width="8" height="4" fill="#6FD2B8"/>
        <rect x="8" y="34" width="8" height="2" fill="#8F9CAF"/>
        <rect x="24" y="34" width="16" height="2" fill="#8F9CAF"/>
        <rect x="48" y="34" width="8" height="2" fill="#8F9CAF"/>
        <rect x="24" y="44" width="16" height="2" fill="#1E232C"/>
      </g>
    </symbol>

    <symbol id="p4" viewBox="0 0 64 64">
      <g shape-rendering="crispEdges">
        <rect x="0" y="26" width="64" height="6" fill="#A8B5C8"/>
        <rect x="0" y="32" width="64" height="8" fill="#647084"/>
        <rect x="0" y="40" width="64" height="4" fill="#3C4555"/>
        <rect x="4" y="22" width="12" height="4" fill="#6FD2B8"/>
        <rect x="20" y="22" width="8" height="4" fill="#6FD2B8"/>
        <rect x="36" y="22" width="12" height="4" fill="#6FD2B8"/>
        <rect x="52" y="22" width="8" height="4" fill="#6FD2B8"/>
        <rect x="10" y="34" width="8" height="2" fill="#8E9AAE"/>
        <rect x="28" y="34" width="8" height="2" fill="#8E9AAE"/>
        <rect x="46" y="34" width="8" height="2" fill="#8E9AAE"/>
        <rect x="12" y="44" width="8" height="2" fill="#1E232C"/>
        <rect x="40" y="44" width="8" height="2" fill="#1E232C"/>
      </g>
    </symbol>
  </defs>

  <g>
    <use href="#g1" x="0" y="0"/>
    <use href="#g2" x="64" y="0"/>
    <use href="#g3" x="128" y="0"/>
    <use href="#g4" x="192" y="0"/>
    <use href="#g5" x="256" y="0"/>
    <use href="#g6" x="320" y="0"/>
    <use href="#g7" x="384" y="0"/>
    <use href="#g8" x="448" y="0"/>

    <use href="#p1" x="0" y="64"/>
    <use href="#p2" x="64" y="64"/>
    <use href="#p3" x="128" y="64"/>
    <use href="#p4" x="192" y="64"/>

    <use href="#g2" x="0" y="128"/>
    <use href="#g4" x="64" y="128"/>
    <use href="#g6" x="128" y="128"/>
    <use href="#g8" x="192" y="128"/>
    <use href="#p2" x="256" y="128"/>
    <use href="#p4" x="320" y="128"/>
    <use href="#g3" x="384" y="128"/>
    <use href="#g7" x="448" y="128"/>
  </g>
</svg>
